<svg preserveAspectRatio="none" overflow="visible" style="display: block;" width="19.9997" height="17.1154" viewBox="0 0 19.9997 17.1154" fill="none" xmlns="http://www.w3.org/2000/svg">
<path id="VibeIcon" fill-rule="evenodd" clip-rule="evenodd" d="M1.79142 1.51411C3.81041 -0.504668 7.08362 -0.504741 9.10257 1.51411L10.0002 2.4118L10.8974 1.51467C12.9164 -0.504215 16.1895 -0.504259 18.2085 1.51467L18.4852 1.79192C20.5041 3.81092 20.5047 7.08464 18.4858 9.10362L10.8091 16.7803L10.7224 16.8586C10.3027 17.201 9.69668 17.201 9.27696 16.8586L9.19032 16.7803L2.41074 10.0007L2.41186 10.0002L1.51418 9.1025C-0.504721 7.08352 -0.504731 3.81033 1.51418 1.79136L1.79142 1.51411ZM11.4971 9.09412L10.5525 12.4015C10.3188 13.2191 9.16594 13.2359 8.90861 12.4255L7.78399 8.8806L7.69344 9.03654C7.53955 9.30019 7.25699 9.46247 6.9517 9.46247H4.43249L4.9702 10.0002L4.96908 10.0007L9.99969 15.0313L15.5686 9.46247H13.4719C13.1326 9.46247 12.8249 9.26221 12.6871 8.95214L12.0125 7.43402L11.4971 9.09412ZM7.82367 2.79301C6.51132 1.48073 4.38296 1.48091 3.07031 2.79356L2.79363 3.07081C1.48119 4.38331 1.48114 6.5111 2.79363 7.82361L3.00156 8.03154H6.62304L7.1982 7.04498C7.56161 6.42201 8.47412 6.50257 8.73533 7.15342L8.75825 7.21826L9.69785 10.1818L10.1305 8.66987L11.0975 5.55593L11.1221 5.48661C11.3888 4.81807 12.327 4.76317 12.6698 5.39606L12.7022 5.46202L13.8436 8.03154H16.9995L17.2069 7.82417C18.5191 6.51184 18.5189 4.38347 17.2063 3.07081L16.9291 2.79412C15.6165 1.48161 13.4888 1.48163 12.1763 2.79412L10.405 4.56536C10.1815 4.78891 9.81904 4.78888 9.59552 4.56531L7.82367 2.79301Z" fill="url(#paint0_linear_0_763)"/>
<defs>
<linearGradient id="paint0_linear_0_763" x1="7.45317e-09" y1="8.5577" x2="19.9997" y2="8.5577" gradientUnits="userSpaceOnUse">
<stop stop-color="#9B631C"/>
<stop offset="1" stop-color="#E3BD63"/>
</linearGradient>
</defs>
</svg>
