<svg width="40" height="40" viewBox="0 0 40 40" fill="none" xmlns="http://www.w3.org/2000/svg">
<path d="M0 20C0 8.95431 8.95431 0 20 0C31.0457 0 40 8.95431 40 20C40 31.0457 31.0457 40 20 40C8.95431 40 0 31.0457 0 20Z" fill="url(#paint0_linear_832_6495)"/>
<path d="M16.0006 12C16.2668 12 16.5331 12.1906 16.5332 12.3813C16.5712 14.1352 17.5593 16.2704 17.6738 16.5001C17.7043 16.7137 17.6106 16.8691 17.5599 16.9199L15.6204 18.3307C17.2557 21.9156 19.0433 23.2504 21.6674 24.3945C21.9843 23.9495 22.6566 22.9986 22.8087 22.7545C22.9988 22.4495 23.2269 22.2207 23.5691 22.3732C24.8241 22.9834 26.1551 23.2506 27.258 23.4413C27.9879 23.5023 28.0439 23.873 27.9807 24.0511V26.7213C27.9806 27.9795 27.4101 28.0556 25.965 27.9793C15.0121 27.5597 11.5512 18.026 12.0455 12.8774C12.1039 12.2693 12.5908 12.0381 12.8443 12H16.0006ZM23.4357 23.4322C23.1367 23.3255 23.172 24.3729 23.172 24.3729C23.1862 24.378 24.4201 24.8128 25.2326 25.0212C25.9707 25.2106 27.144 25.4136 27.144 25.4136C27.144 25.4136 27.6632 24.4988 27.3901 24.4689C27.1171 24.439 26.2036 24.3263 25.4637 24.1386C24.651 23.9323 23.7348 23.5392 23.4357 23.4322ZM15.7304 12.8513C15.675 12.5381 14.7851 13.087 14.7851 13.087C14.7892 13.1098 15.0216 14.395 15.2422 15.2036C15.4432 15.9405 15.8476 17.0636 15.8476 17.0636C15.8476 17.0636 16.8975 17.063 16.7884 16.8102C16.6792 16.5573 16.3243 15.7055 16.1211 14.9679C15.8979 14.1576 15.7856 13.1649 15.7304 12.8513Z" fill="white"/>
<defs>
<linearGradient id="paint0_linear_832_6495" x1="0" y1="20" x2="40" y2="20" gradientUnits="userSpaceOnUse">
<stop stop-color="#9B631C"/>
<stop offset="1" stop-color="#E3BD63"/>
</linearGradient>
</defs>
</svg>
