<svg width="60" height="60" viewBox="0 0 60 60" fill="none" xmlns="http://www.w3.org/2000/svg">
<path d="M0 30C0 13.4315 13.4315 0 30 0C46.5685 0 60 13.4315 60 30C60 46.5685 46.5685 60 30 60C13.4315 60 0 46.5685 0 30Z" fill="url(#paint0_linear_832_6493)"/>
<path d="M24.001 18C24.4002 18 24.7996 18.2859 24.7998 18.5719C24.8568 21.2027 26.339 24.4057 26.5108 24.7502C26.5564 25.0706 26.4159 25.3036 26.3399 25.3799L23.4306 27.4961C25.8836 32.8734 28.5649 34.8756 32.5011 36.5917C32.9765 35.9243 33.9849 34.4979 34.213 34.1317C34.4982 33.6743 34.8404 33.3311 35.3537 33.5598C37.2362 34.4751 39.2326 34.8759 40.887 35.162C41.9818 35.2534 42.0659 35.8095 41.971 36.0766V40.0819C41.9708 41.9693 41.1151 42.0834 38.9475 41.969C22.5182 41.3396 17.3269 27.039 18.0682 19.3162C18.1558 18.4039 18.8862 18.0572 19.2665 18H24.001ZM35.1535 35.1482C34.705 34.9882 34.758 36.5594 34.758 36.5594C34.7794 36.5669 36.6302 37.2192 37.8488 37.5318C38.956 37.8158 40.7161 38.1204 40.7161 38.1204C40.7161 38.1204 41.4948 36.7482 41.0852 36.7033C40.6756 36.6585 39.3054 36.4895 38.1955 36.2078C36.9764 35.8985 35.6021 35.3088 35.1535 35.1482ZM23.5957 19.277C23.5125 18.8071 22.1777 19.6305 22.1777 19.6305C22.1839 19.6647 22.5324 21.5925 22.8632 22.8053C23.1648 23.9108 23.7715 25.5953 23.7715 25.5953C23.7715 25.5953 25.3463 25.5945 25.1826 25.2154C25.0188 24.836 24.4865 23.5582 24.1816 22.4518C23.8468 21.2364 23.6784 19.7473 23.5957 19.277Z" fill="white"/>
<defs>
<linearGradient id="paint0_linear_832_6493" x1="0" y1="30" x2="60" y2="30" gradientUnits="userSpaceOnUse">
<stop stop-color="#9B631C"/>
<stop offset="1" stop-color="#E3BD63"/>
</linearGradient>
</defs>
</svg>
