<svg width="36" height="36" viewBox="0 0 36 36" fill="none" xmlns="http://www.w3.org/2000/svg">
<g filter="url(#filter0_d_62_352)">
<path d="M6 14C6 7.37258 11.3726 2 18 2C24.6274 2 30 7.37258 30 14C30 20.6274 24.6274 26 18 26C11.3726 26 6 20.6274 6 14Z" fill="url(#paint0_linear_62_352)" shape-rendering="crispEdges"/>
<path d="M16.0403 18.0651L17.0449 14.2975H19.9331L18.9285 18.0651H16.0403Z" fill="white"/>
<path d="M15.0356 13.4184L15.2868 12.5393C19.933 10.6555 20.0587 13.2928 19.9331 14.2975H17.0449C17.4467 12.7904 15.7891 12.9161 15.0356 13.4184Z" fill="white"/>
<path d="M20.9646 18.9441L20.7135 19.8232C16.0673 21.7071 15.9147 19.0698 16.0403 18.0651H18.9285C18.5266 19.5721 20.2112 19.4465 20.9646 18.9441Z" fill="white"/>
<path d="M20.8121 9.02266C20.8121 9.85498 20.1374 10.5297 19.3052 10.5297C18.4729 10.5297 17.7983 9.85498 17.7983 9.02266C17.7983 8.19035 18.4729 7.51562 19.3052 7.51562C20.1374 7.51562 20.8121 8.19035 20.8121 9.02266Z" fill="white"/>
</g>
<defs>
<filter id="filter0_d_62_352" x="0" y="0" width="36" height="36" filterUnits="userSpaceOnUse" color-interpolation-filters="sRGB">
<feFlood flood-opacity="0" result="BackgroundImageFix"/>
<feColorMatrix in="SourceAlpha" type="matrix" values="0 0 0 0 0 0 0 0 0 0 0 0 0 0 0 0 0 0 127 0" result="hardAlpha"/>
<feOffset dy="4"/>
<feGaussianBlur stdDeviation="3"/>
<feComposite in2="hardAlpha" operator="out"/>
<feColorMatrix type="matrix" values="0 0 0 0 0 0 0 0 0 0 0 0 0 0 0 0 0 0 0.25 0"/>
<feBlend mode="normal" in2="BackgroundImageFix" result="effect1_dropShadow_62_352"/>
<feBlend mode="normal" in="SourceGraphic" in2="effect1_dropShadow_62_352" result="shape"/>
</filter>
<linearGradient id="paint0_linear_62_352" x1="6" y1="14" x2="30" y2="14" gradientUnits="userSpaceOnUse">
<stop stop-color="#9B631C"/>
<stop offset="1" stop-color="#E3BD63"/>
</linearGradient>
</defs>
</svg>
