<svg width="40" height="40" viewBox="0 0 40 40" fill="none" xmlns="http://www.w3.org/2000/svg">
<path d="M0 20C0 8.95431 8.95431 0 20 0C31.0457 0 40 8.95431 40 20C40 31.0457 31.0457 40 20 40C8.95431 40 0 31.0457 0 20Z" fill="url(#paint0_linear_832_6509)"/>
<path d="M28 26H12V14.8913C12.0391 14.9352 12.079 14.9788 12.1211 15.0208L17.778 20.6777L17.89 20.7839C19.0676 21.8479 20.8858 21.8127 22.0208 20.6777L27.6777 15.0208L27.7839 14.9089C27.8622 14.8221 27.9336 14.7311 28 14.638V26Z" fill="white"/>
<path d="M27.2266 14C27.1534 14.1108 27.0683 14.2162 26.9707 14.3138L21.3138 19.9707C20.5327 20.7517 19.2661 20.7517 18.485 19.9707L12.8281 14.3138C12.7306 14.2162 12.6455 14.1108 12.5723 14H27.2266Z" fill="white"/>
<defs>
<linearGradient id="paint0_linear_832_6509" x1="0" y1="20" x2="40" y2="20" gradientUnits="userSpaceOnUse">
<stop stop-color="#9B631C"/>
<stop offset="1" stop-color="#E3BD63"/>
</linearGradient>
</defs>
</svg>
