<svg width="60" height="60" viewBox="0 0 60 60" fill="none" xmlns="http://www.w3.org/2000/svg">
<path d="M0 30C0 13.4315 13.4315 0 30 0C46.5685 0 60 13.4315 60 30C60 46.5685 46.5685 60 30 60C13.4315 60 0 46.5685 0 30Z" fill="url(#paint0_linear_832_6507)"/>
<path d="M42 39H18V22.3369C18.0586 22.4028 18.1185 22.4681 18.1816 22.5312L26.667 31.0166L26.835 31.1758C28.6014 32.7719 31.3288 32.719 33.0312 31.0166L41.5166 22.5312L41.6758 22.3633C41.7933 22.2332 41.9004 22.0967 42 21.957V39Z" fill="white"/>
<path d="M40.8398 21C40.7301 21.1662 40.6024 21.3243 40.4561 21.4707L31.9707 29.9561C30.7991 31.1275 28.8991 31.1276 27.7275 29.9561L19.2422 21.4707C19.0958 21.3243 18.9682 21.1662 18.8584 21H40.8398Z" fill="white"/>
<defs>
<linearGradient id="paint0_linear_832_6507" x1="0" y1="30" x2="60" y2="30" gradientUnits="userSpaceOnUse">
<stop stop-color="#9B631C"/>
<stop offset="1" stop-color="#E3BD63"/>
</linearGradient>
</defs>
</svg>
