<svg width="40" height="40" viewBox="0 0 40 40" fill="none" xmlns="http://www.w3.org/2000/svg">
<path d="M0 20C0 8.95431 8.95431 0 20 0C31.0457 0 40 8.95431 40 20C40 31.0457 31.0457 40 20 40C8.95431 40 0 31.0457 0 20Z" fill="url(#paint0_linear_832_6502)"/>
<path d="M24 22C26.2091 22 28 23.7909 28 26V28H12V26C12 23.7909 13.7909 22 16 22H24Z" fill="white"/>
<path fill-rule="evenodd" clip-rule="evenodd" d="M20 12C22.2091 12 24 13.7909 24 16C24 18.2091 22.2091 20 20 20C17.7909 20 16 18.2091 16 16C16 13.7909 17.7909 12 20 12ZM20 13C18.3431 13 17 14.3431 17 16C17 17.6569 18.3431 19 20 19C21.6569 19 23 17.6569 23 16C23 14.3431 21.6569 13 20 13Z" fill="white"/>
<defs>
<linearGradient id="paint0_linear_832_6502" x1="0" y1="20" x2="40" y2="20" gradientUnits="userSpaceOnUse">
<stop stop-color="#9B631C"/>
<stop offset="1" stop-color="#E3BD63"/>
</linearGradient>
</defs>
</svg>
