<svg width="60" height="60" viewBox="0 0 60 60" fill="none" xmlns="http://www.w3.org/2000/svg">
<path d="M0 30C0 13.4315 13.4315 0 30 0C46.5685 0 60 13.4315 60 30C60 46.5685 46.5685 60 30 60C13.4315 60 0 46.5685 0 30Z" fill="url(#paint0_linear_832_6500)"/>
<path d="M36 33C39.3137 33 42 35.6863 42 39V42H18V39C18 35.6863 20.6863 33 24 33H36Z" fill="white"/>
<path fill-rule="evenodd" clip-rule="evenodd" d="M30 18C33.3137 18 36 20.6863 36 24C36 27.3137 33.3137 30 30 30C26.6863 30 24 27.3137 24 24C24 20.6863 26.6863 18 30 18ZM30 19.5C27.5147 19.5 25.5 21.5147 25.5 24C25.5 26.4853 27.5147 28.5 30 28.5C32.4853 28.5 34.5 26.4853 34.5 24C34.5 21.5147 32.4853 19.5 30 19.5Z" fill="white"/>
<defs>
<linearGradient id="paint0_linear_832_6500" x1="0" y1="30" x2="60" y2="30" gradientUnits="userSpaceOnUse">
<stop stop-color="#9B631C"/>
<stop offset="1" stop-color="#E3BD63"/>
</linearGradient>
</defs>
</svg>
